<?xml version="1.0" encoding="utf-8"?>
<!-- Generator: Adobe Illustrator 16.0.0, SVG Export Plug-In . SVG Version: 6.00 Build 0)  -->
<!DOCTYPE svg PUBLIC "-//W3C//DTD SVG 1.1//EN" "http://www.w3.org/Graphics/SVG/1.1/DTD/svg11.dtd">
<svg version="1.1" id="Layer_1" xmlns="http://www.w3.org/2000/svg" xmlns:xlink="http://www.w3.org/1999/xlink" x="0px" y="0px"
	 width="18.023px" height="15.439px" viewBox="0 0 18.023 15.439" enable-background="new 0 0 18.023 15.439" xml:space="preserve">
<g id="Facebook" display="none">
	<path display="inline" fill="#FFFFFF" d="M82.732,100.532h27V88.283v-12v-2.001c0-11.552,0.297-29.4,8.697-40.449
		c8.85-11.702,21-19.649,41.899-19.649c34.048,0,48.399,4.851,48.399,4.851l-6.75,40.001c0,0-11.25-3.251-21.75-3.251
		s-19.899,3.75-19.899,14.25v4.25v14.001v12.249h43.048l-3,39.05H160.33v135.701h-50.6V139.582h-27L82.732,100.532L82.732,100.532z"
		/>
</g>
<polygon fill="#FFFFFF" points="-0.001,1.06 2.833,1.06 3.998,2.65 4.825,9.579 4.296,11.868 15.931,11.868 16.164,10.81 
	6.372,10.81 6.649,9.749 14.256,9.061 18.023,1.06 5.121,2.119 3.49,0 -0.001,0 "/>
<circle fill="#FFFFFF" cx="13.39" cy="13.808" r="1.632"/>
<circle fill="#FFFFFF" cx="6.012" cy="13.808" r="1.632"/>
</svg>
